HIERARCHY
ROOT joint_Root
{
	OFFSET 0.0 0.0 0.0
	CHANNELS 6 Xposition Yposition Zposition Zrotation Xrotation Yrotation 
	JOINT Hips
	{
		OFFSET -17.1583 93.1646 452.98
		CHANNELS 6 Xposition Yposition Zposition Zrotation Xrotation Yrotation 
		JOINT Spine
		{
			OFFSET 15.7357 0.0 0.0
			CHANNELS 6 Xposition Yposition Zposition Zrotation Xrotation Yrotation 
			JOINT Chest
			{
				OFFSET 8.98455 -0.406207 0.0
				CHANNELS 6 Xposition Yposition Zposition Zrotation Xrotation Yrotation 
				JOINT Neck
				{
					OFFSET 16.3773 0.0 0.0
					CHANNELS 6 Xposition Yposition Zposition Zrotation Xrotation Yrotation 
					JOINT Head
					{
						OFFSET 6.45672 0.0 0.0
						CHANNELS 6 Xposition Yposition Zposition Zrotation Xrotation Yrotation 
						End Site
						{
							OFFSET 0.0 0.0 0.0
						}
					}
				}
				JOINT Shoulder_L
				{
					OFFSET 12.9942 -0.242716 4.98039
					CHANNELS 6 Xposition Yposition Zposition Zrotation Xrotation Yrotation 
					JOINT UpperArm_L
					{
						OFFSET 5.34809 0.0 0.0
						CHANNELS 6 Xposition Yposition Zposition Zrotation Xrotation Yrotation 
						JOINT LowerArm_L
						{
							OFFSET 24.3286 1.87007e-05 0.0
							CHANNELS 6 Xposition Yposition Zposition Zrotation Xrotation Yrotation 
							JOINT Hand_L
							{
								OFFSET 22.2916 0.0 0.0
								CHANNELS 6 Xposition Yposition Zposition Zrotation Xrotation Yrotation 
								End Site
								{
									OFFSET 0.0 0.0 0.0
								}
							}
						}
					}
				}
				JOINT Shoulder_R
				{
					OFFSET 12.9945 -0.242716 -4.98039
					CHANNELS 6 Xposition Yposition Zposition Zrotation Xrotation Yrotation 
					JOINT UpperArm_R
					{
						OFFSET -5.34813 0.0 0.0
						CHANNELS 6 Xposition Yposition Zposition Zrotation Xrotation Yrotation 
						JOINT LowerArm_R
						{
							OFFSET -24.3289 0.000322201 0.0
							CHANNELS 6 Xposition Yposition Zposition Zrotation Xrotation Yrotation 
							JOINT Hand_R
							{
								OFFSET -22.2915 -0.000108084 0.0
								CHANNELS 6 Xposition Yposition Zposition Zrotation Xrotation Yrotation 
								End Site
								{
									OFFSET 0.0 0.0 0.0
								}
							}
						}
					}
				}
			}
		}
		JOINT UpperLeg_L
		{
			OFFSET -2.19248 -6.46944 0.0
			CHANNELS 6 Xposition Yposition Zposition Zrotation Xrotation Yrotation 
			JOINT LowerLeg_L
			{
				OFFSET 39.0811 0.0 -1.23785e-05
				CHANNELS 6 Xposition Yposition Zposition Zrotation Xrotation Yrotation 
				JOINT Foot_L
				{
					OFFSET 40.9854 0.0 -1.26872e-05
					CHANNELS 6 Xposition Yposition Zposition Zrotation Xrotation Yrotation 
					JOINT Toes_L
					{
						OFFSET 11.7543 0.0 0.0
						CHANNELS 6 Xposition Yposition Zposition Zrotation Xrotation Yrotation 
						End Site
						{
							OFFSET 0.0 0.0 0.0
						}
					}
				}
			}
		}
		JOINT UpperLeg_R
		{
			OFFSET -2.19251 6.46944 0.0
			CHANNELS 6 Xposition Yposition Zposition Zrotation Xrotation Yrotation 
			JOINT LowerLeg_R
			{
				OFFSET -39.0811 -0.00228153 -0.0401928
				CHANNELS 6 Xposition Yposition Zposition Zrotation Xrotation Yrotation 
				JOINT Foot_R
				{
					OFFSET -40.9854 0.0 0.0
					CHANNELS 6 Xposition Yposition Zposition Zrotation Xrotation Yrotation 
					JOINT Toes_R
					{
						OFFSET -11.7543 0.0 0.0
						CHANNELS 6 Xposition Yposition Zposition Zrotation Xrotation Yrotation 
						End Site
						{
							OFFSET 0.0 0.0 0.0
						}
					}
				}
			}
		}
	}
}
MOTION
Frames:	6
Frame Time:	0.0333333
0.000000 0.000000 0.000000 0.000000 0.000000 -0.000000 -0.408494 93.120000 -0.570277 88.655000 0.640985 1.948130 15.735700 0.000005 -0.000001 116.747000 87.261300 -116.771000 8.984550 -0.406207 -0.000000 -2.875410 2.466350 0.012866 16.377300 -0.000001 -0.000001 0.649582 1.386600 -0.654711 6.456720 -0.000001 -0.000000 0.093965 -0.234940 6.354430 12.994200 -0.242716 4.980390 -92.803500 8.695830 -72.053300 5.348090 -0.000007 -0.000001 -69.755900 13.279300 -5.548990 24.328600 0.000019 0.000005 5.959790 29.799600 -11.863200 22.291600 -0.000001 0.000005 -8.676200 5.120370 4.642030 12.994500 -0.242716 -4.980390 88.367900 6.066590 -74.911500 -5.348130 -0.000001 -0.000004 -72.496000 30.294200 -3.131860 -24.328900 0.000322 -0.000009 1.021390 3.690590 -15.496600 -22.291500 -0.000108 -0.000004 2.266510 5.289500 0.364969 -2.192480 -6.469440 -0.000000 -174.116000 -3.366680 -0.080534 39.081100 -0.000007 -0.000012 0.028909 -0.107248 15.086200 40.985400 -0.000006 -0.000013 -1.193090 11.472500 -68.356700 11.754300 -0.000000 0.000003 -0.000010 0.167786 -9.771500 -2.192510 6.469440 -0.000001 176.320000 6.208200 -178.159000 -39.081100 -0.002282 -0.040193 0.013920 -0.047579 12.542800 -40.985400 0.000008 0.000006 -7.336050 4.947420 -67.515400 -11.754300 -0.000006 -0.000006 -0.010410 0.274343 -5.426710
0.000000 0.000000 0.000000 0.000000 0.000000 -0.000000 -0.394125 93.089800 -0.372642 88.710400 0.894318 1.952950 15.735700 0.000005 -0.000001 115.724000 87.289000 -115.466000 8.984550 -0.406207 -0.000000 -2.887520 2.328460 0.574317 16.377300 -0.000001 -0.000001 0.238158 1.072020 0.291344 6.456720 -0.000001 -0.000000 -0.524683 -0.113281 6.425930 12.994200 -0.242716 4.980390 -92.900300 9.061420 -72.167900 5.348090 -0.000007 -0.000001 -68.355500 10.113100 -7.069510 24.328600 0.000019 0.000005 4.890510 30.982900 -9.437110 22.291600 -0.000001 0.000005 -11.003700 5.152950 3.871090 12.994500 -0.242716 -4.980390 88.408400 5.913990 -74.907600 -5.348130 -0.000001 -0.000004 -72.232600 29.064000 -3.155070 -24.328900 0.000322 -0.000009 0.948336 3.538940 -15.027300 -22.291500 -0.000108 -0.000004 2.529270 5.292410 0.284287 -2.192480 -6.469440 -0.000000 -174.127000 -3.542490 -0.013209 39.081100 -0.000007 -0.000012 0.028874 -0.106552 15.162500 40.985400 -0.000006 -0.000013 -1.106630 11.884800 -68.485900 11.754300 -0.000000 0.000003 -0.000120 0.169614 -9.697260 -2.192510 6.469440 -0.000001 176.269000 6.253550 -178.046000 -39.081100 -0.002282 -0.040193 0.014772 -0.050845 12.677300 -40.985400 0.000008 0.000006 -7.295100 4.736160 -67.775000 -11.754300 -0.000006 -0.000006 -0.010437 0.274539 -5.418680
0.000000 0.000000 0.000000 0.000000 0.000000 -0.000000 -0.389876 93.088100 -0.175789 88.832200 1.169630 1.835730 15.735700 0.000005 -0.000001 114.803000 87.365500 -114.245000 8.984550 -0.406207 -0.000000 -2.994300 2.157080 1.171600 16.377300 -0.000001 -0.000001 -0.465970 0.694280 1.132650 6.456720 -0.000001 -0.000000 -0.804902 -0.109780 6.472750 12.994200 -0.242716 4.980390 -92.924300 9.165160 -72.218300 5.348090 -0.000007 -0.000001 -66.418200 6.289230 -9.237320 24.328600 0.000019 0.000005 3.499240 33.517400 -6.319480 22.291600 -0.000001 0.000005 -14.145900 5.223330 2.121970 12.994500 -0.242716 -4.980390 88.434500 5.784780 -74.829000 -5.348130 -0.000001 -0.000004 -71.918000 27.366600 -3.213080 -24.328900 0.000322 -0.000009 0.794944 3.144030 -14.215000 -22.291500 -0.000108 -0.000004 2.692970 5.292290 0.287479 -2.192480 -6.469440 -0.000000 -174.206000 -3.719870 0.107502 39.081100 -0.000007 -0.000012 0.027287 -0.102672 14.883600 40.985400 -0.000006 -0.000013 -1.068370 12.276200 -68.507700 11.754300 -0.000000 0.000003 -0.000340 0.173165 -9.553030 -2.192510 6.469440 -0.000001 176.136000 6.354820 -177.942000 -39.081100 -0.002282 -0.040193 0.013992 -0.047752 12.581000 -40.985400 0.000008 0.000006 -7.484240 4.586640 -67.872700 -11.754300 -0.000006 -0.000006 -0.010537 0.275274 -5.388640
0.000000 0.000000 0.000000 0.000000 0.000000 -0.000000 -0.414551 93.094600 -0.006566 88.926200 1.489400 1.477230 15.735700 0.000005 -0.000001 114.246000 87.566700 -113.363000 8.984550 -0.406207 -0.000000 -3.343750 1.911930 1.821780 16.377300 -0.000001 -0.000001 -1.225830 0.326761 1.805180 6.456720 -0.000001 -0.000000 -0.919225 -0.250192 6.868470 12.994200 -0.242716 4.980390 -92.827500 8.832020 -72.168300 5.348090 -0.000007 -0.000001 -63.929700 0.652173 -12.152100 24.328600 0.000019 0.000005 1.183270 37.594000 -1.939390 22.291600 -0.000001 0.000005 -18.601900 5.311920 -0.267491 12.994500 -0.242716 -4.980390 88.507200 5.477100 -74.729000 -5.348130 -0.000001 -0.000004 -71.852400 25.025600 -3.200890 -24.328900 0.000322 -0.000009 0.771289 3.361630 -12.947200 -22.291500 -0.000108 -0.000004 3.061350 5.292670 0.277036 -2.192480 -6.469440 -0.000000 -174.248000 -3.882730 -0.011266 39.081100 -0.000007 -0.000012 0.025107 -0.096858 14.532200 40.985400 -0.000006 -0.000013 -1.052780 12.746100 -68.407500 11.754300 -0.000000 0.000003 -0.000386 0.173879 -9.524000 -2.192510 6.469440 -0.000001 176.081000 6.652760 -178.029000 -39.081100 -0.002282 -0.040193 0.013692 -0.047378 12.331800 -40.985400 0.000008 0.000006 -7.472760 4.539240 -67.751700 -11.754300 -0.000006 -0.000006 -0.010381 0.274128 -5.435500
0.000000 0.000000 0.000000 0.000000 0.000000 -0.000000 -0.464996 93.168800 0.135592 88.982100 1.857630 0.859722 15.735700 0.000005 -0.000001 114.111000 87.892300 -112.876000 8.984550 -0.406207 -0.000000 -3.935180 1.594800 2.526450 16.377300 -0.000001 -0.000001 -2.089290 -0.000508 2.270000 6.456720 -0.000001 -0.000000 -0.790880 -0.411053 7.734530 12.994200 -0.242716 4.980390 -92.612000 8.085120 -72.028800 5.348090 -0.000007 -0.000001 -60.636800 -6.158970 -15.199900 24.328600 0.000019 0.000005 -0.000002 41.701700 -0.000006 22.291600 -0.000001 0.000005 -23.839200 5.324600 -0.626528 12.994500 -0.242716 -4.980390 88.587200 5.118350 -74.546300 -5.348130 -0.000001 -0.000004 -71.620100 22.525500 -3.006380 -24.328900 0.000322 -0.000009 0.784982 3.777740 -11.762800 -22.291500 -0.000108 -0.000004 3.381720 5.288110 0.403421 -2.192480 -6.469440 -0.000000 -174.263000 -3.942910 -0.074503 39.081100 -0.000007 -0.000012 0.022032 -0.091682 13.512900 40.985400 -0.000006 -0.000013 -1.158240 13.105100 -68.113500 11.754300 -0.000000 0.000003 -0.000484 0.175408 -9.461880 -2.192510 6.469440 -0.000001 176.043000 6.972490 -178.015000 -39.081100 -0.002282 -0.040193 0.008367 -0.025185 11.296100 -40.985400 0.000008 0.000006 -8.204820 4.523130 -67.104000 -11.754300 -0.000006 -0.000006 -0.010536 0.275270 -5.388790
0.000000 0.000000 0.000000 0.000000 0.000000 -0.000000 -0.533247 93.251800 0.245826 88.940100 2.140780 0.113682 15.735700 0.000005 -0.000001 113.305000 88.256000 -111.597000 8.984550 -0.406207 -0.000000 -4.578690 1.194860 3.465810 16.377300 -0.000001 -0.000001 -3.176360 -0.201551 2.726750 6.456720 -0.000001 -0.000000 -0.589337 -0.378644 8.165560 12.994200 -0.242716 4.980390 -92.325800 7.087410 -71.779600 5.348090 -0.000007 -0.000001 -56.338800 -12.911900 -17.790000 24.328600 0.000019 0.000005 0.000060 43.818300 -0.000007 22.291600 -0.000001 0.000005 -26.471700 5.294500 0.225657 12.994500 -0.242716 -4.980390 88.704100 4.621420 -74.317400 -5.348130 -0.000001 -0.000004 -70.950600 19.785800 -2.795790 -24.328900 0.000322 -0.000009 0.858703 4.435420 -10.981500 -22.291500 -0.000108 -0.000004 3.130790 5.282790 0.549793 -2.192480 -6.469440 -0.000000 -174.189000 -4.045700 -0.237410 39.081100 -0.000007 -0.000012 0.020434 -0.092584 12.446600 40.985400 -0.000006 -0.000013 -1.293260 13.395400 -67.835100 11.754300 -0.000000 0.000003 -0.000391 0.173972 -9.520230 -2.192510 6.469440 -0.000001 176.132000 7.279570 -177.975000 -39.081100 -0.002282 -0.040193 0.004436 -0.006299 9.881070 -40.985400 0.000008 0.000006 -8.954410 4.499440 -66.216300 -11.754300 -0.000006 -0.000006 -0.010531 0.275231 -5.390380
